<svg xmlns="http://www.w3.org/2000/svg" width="160" height="40" viewBox="0 0 160 40">
  <g fill="none" fill-rule="evenodd">
    <g fill="#ffffff">
      <path
        d="M53.55 10.115c.599.124.898.448.898.969 0 .57-.35.94-.922.94-.126 0-.599-.073-.823-.073-1.37 0-1.793.545-1.793 2.058v1.413h2.118c.673 0 1.07.348 1.07.92 0 .52-.397.94-1.07.94H50.91v9.697c0 .918-.55 1.414-1.322 1.414-.798 0-1.295-.496-1.295-1.414V17.28h-1.097c-.599 0-.947-.347-.947-.842 0-.52.3-.817.922-.894l1.122-.123V14.11c0-2.755 1.046-4.169 3.813-4.169.522 0 .996.05 1.445.174M57.157 21.871c0 1.366.4 2.48 1.197 3.347.822.844 1.844 1.267 3.066 1.267 1.22 0 2.241-.423 3.04-1.267.82-.868 1.22-1.981 1.22-3.347 0-1.364-.4-2.479-1.22-3.323-.799-.867-1.82-1.29-3.04-1.29-2.493 0-4.263 1.834-4.263 4.613zm9.246-4.836c1.32 1.215 1.992 2.828 1.992 4.81 0 1.985-.672 3.597-1.992 4.838-1.322 1.24-2.991 1.858-4.96 1.858-2.018 0-3.688-.618-5.007-1.835-1.321-1.24-1.994-2.851-1.994-4.835 0-2.008.673-3.62 1.994-4.836 1.32-1.216 2.989-1.836 5.007-1.836 1.969 0 3.638.62 4.96 1.836zM72.677 21.871c0 1.366.399 2.48 1.196 3.347.822.844 1.843 1.267 3.065 1.267 1.22 0 2.242-.423 3.04-1.267.822-.868 1.222-1.981 1.222-3.347 0-1.364-.4-2.479-1.222-3.323-.798-.867-1.82-1.29-3.04-1.29-2.493 0-4.26 1.834-4.26 4.613zm9.245-4.836c1.322 1.215 1.995 2.828 1.995 4.81 0 1.985-.673 3.597-1.995 4.838-1.32 1.24-2.99 1.858-4.959 1.858-2.019 0-3.688-.618-5.009-1.835-1.321-1.24-1.993-2.851-1.993-4.835 0-2.008.672-3.62 1.993-4.836 1.32-1.216 2.99-1.836 5.01-1.836 1.967 0 3.637.62 4.958 1.836zM89.38 18.572c-.723.868-1.095 1.985-1.095 3.324 0 1.315.372 2.43 1.095 3.298.723.868 1.67 1.29 2.841 1.29 1.147 0 2.093-.447 2.815-1.315.749-.867 1.121-1.958 1.121-3.273 0-1.339-.372-2.456-1.12-3.324-.723-.868-1.67-1.315-2.816-1.315-1.171 0-2.118.447-2.84 1.315zm9.37-7.068v15.675c0 .77-.448 1.214-1.147 1.214-.673 0-1.17-.396-1.196-1.066l-.099-1.388c-.899 1.712-2.64 2.602-4.611 2.602-1.917 0-3.437-.644-4.508-1.908-1.073-1.291-1.62-2.878-1.62-4.737 0-1.86.547-3.449 1.62-4.737 1.071-1.314 2.567-1.96 4.434-1.96 1.993 0 3.663.943 4.534 2.406v-6.101c0-.918.5-1.412 1.298-1.412.87 0 1.295.471 1.295 1.412zM108.852 16.513c0 .695-.448 1.141-1.37 1.34-1.77.372-2.94 1.61-2.94 3.796v5.405c0 .87-.523 1.339-1.322 1.339-.772 0-1.296-.47-1.296-1.34V16.665c0-.868.374-1.317 1.146-1.317.624 0 .997.348 1.072 1.042l.2 1.613c.275-.62.671-1.216 1.22-1.785.574-.595 1.221-.892 1.945-.892.897 0 1.345.394 1.345 1.188M112.08 24.402c0 1.486 1.098 2.256 2.567 2.256 1.02 0 1.869-.297 2.592-.918.721-.62 1.096-1.364 1.096-2.257v-1.192c-.823-.173-1.77-.245-2.817-.245-2.068 0-3.437.742-3.437 2.356zm8.772-4.814v5.927c0 .696.373.67.922.721.523.074.797.373.797.943 0 .37-.15.668-.448.893-.349.223-.898.345-1.62.345-1.022 0-1.994-.57-1.994-1.562v-.619c-.673 1.365-2.217 2.305-4.51 2.305-2.69 0-4.56-1.387-4.56-3.941 0-2.877 2.318-4.169 5.832-4.169.548 0 1.568.076 3.064.225v-.944c0-1.883-1.147-2.577-3.165-2.577-.523 0-1.596.146-3.239.446-.822.123-1.295-.249-1.321-.868-.025-.52.273-.868.897-1.018 1.37-.323 2.74-.496 4.137-.496 3.463 0 5.208 1.465 5.208 4.389zM133.374 15.422c.97 0 1.444.423 1.444 1.264 0 .422-.2.845-.598 1.316l-7.226 8.333.026.1 4.01-.074h2.716c.724 0 1.097.322 1.097.966 0 .596-.4.993-1.097.993h-8.496c-.897 0-1.445-.498-1.445-1.266 0-.47.2-.893.598-1.314l7.326-8.359-.026-.049-4.112.05h-2.34c-.699 0-1.122-.398-1.122-.993 0-.57.423-.967 1.121-.967h8.124M138.305 21.871c0 1.366.397 2.48 1.196 3.347.822.844 1.844 1.267 3.064 1.267 1.222 0 2.243-.423 3.04-1.267.822-.868 1.222-1.981 1.222-3.347 0-1.364-.4-2.479-1.223-3.323-.796-.867-1.817-1.29-3.039-1.29-2.49 0-4.26 1.834-4.26 4.613zm9.244-4.836c1.321 1.215 1.994 2.828 1.994 4.81 0 1.985-.673 3.597-1.994 4.838-1.32 1.24-2.99 1.858-4.96 1.858-2.016 0-3.686-.618-5.007-1.835-1.322-1.24-1.993-2.851-1.993-4.835 0-2.008.671-3.62 1.993-4.836 1.32-1.216 2.99-1.836 5.008-1.836 1.969 0 3.638.62 4.959 1.836zM158.829 16.513c0 .695-.447 1.141-1.37 1.34-1.77.372-2.94 1.61-2.94 3.796v5.405c0 .87-.524 1.339-1.32 1.339-.773 0-1.296-.47-1.296-1.34V16.665c0-.868.373-1.317 1.145-1.317.624 0 .997.348 1.072 1.042l.2 1.613a6.135 6.135 0 0 1 1.22-1.785c.572-.595 1.22-.892 1.944-.892.898 0 1.345.394 1.345 1.188"/>
    </g>
    <path fill="#F8CA24"
          d="M32.468 5.477L14.165 19.97 2.863 12.133A19.148 19.148 0 0 1 20.238 1.082c4.65 0 8.914 1.652 12.23 4.395"/>
    <path fill="#2EAA4F"
          d="M39.372 20.126c0 5.25-2.135 10.004-5.587 13.45l-12.689-8.8L36.144 9.538a18.877 18.877 0 0 1 3.228 10.588"/>
    <path fill="#65669F"
          d="M24.589 38.675a19.237 19.237 0 0 1-4.35.495 19.105 19.105 0 0 1-10.362-3.03l5.557-5.629 9.155 8.164"/>
    <path fill="#E46E37"
          d="M8.577 24.396l-5.43 4.299a18.864 18.864 0 0 1-2.045-8.57c0-.77.046-1.529.136-2.274l7.339 6.545"/>
    <path fill="#D14347" d="M15.434 30.511L9.877 36.14a19.14 19.14 0 0 1-6.73-7.445l5.43-4.299 6.857 6.115"/>
    <path fill="#51BDC9" d="M33.785 33.575a19.13 19.13 0 0 1-9.196 5.1l-9.155-8.164 5.662-5.735 12.689 8.8"/>
  </g>
</svg>
