<svg
  xmlns="http://www.w3.org/2000/svg"
  width="40"
  height="40"
  viewBox="0 0 40 40"
>
  <g fill="none" fill-rule="evenodd">
    <path
      fill="#F8CA24"
      d="M32.468 5.477L14.165 19.97 2.863 12.133A19.148 19.148 0 0 1 20.238 1.082c4.65 0 8.914 1.652 12.23 4.395"
    />
    <path
      fill="#2EAA4F"
      d="M39.372 20.126c0 5.25-2.135 10.004-5.587 13.45l-12.689-8.8L36.144 9.538a18.877 18.877 0 0 1 3.228 10.588"
    />
    <path
      fill="#65669F"
      d="M24.589 38.675a19.237 19.237 0 0 1-4.35.495 19.105 19.105 0 0 1-10.362-3.03l5.557-5.629 9.155 8.164"
    />
    <path
      fill="#E46E37"
      d="M8.577 24.396l-5.43 4.299a18.864 18.864 0 0 1-2.045-8.57c0-.77.046-1.529.136-2.274l7.339 6.545"
    />
    <path
      fill="#D14347"
      d="M15.434 30.511L9.877 36.14a19.14 19.14 0 0 1-6.73-7.445l5.43-4.299 6.857 6.115"
    />
    <path
      fill="#51BDC9"
      d="M33.785 33.575a19.13 19.13 0 0 1-9.196 5.1l-9.155-8.164 5.662-5.735 12.689 8.8"
    />
  </g>
</svg>
