<?xml version="1.0" encoding="utf-8"?>
<!-- Generator: Adobe Illustrator 16.0.0, SVG Export Plug-In . SVG Version: 6.00 Build 0)  -->
<!DOCTYPE svg PUBLIC "-//W3C//DTD SVG 1.1//EN" "http://www.w3.org/Graphics/SVG/1.1/DTD/svg11.dtd">
<svg version="1.1" id="Layer_1" xmlns="http://www.w3.org/2000/svg" xmlns:xlink="http://www.w3.org/1999/xlink" x="0px" y="0px"
	 width="94.302px" height="169.05px" viewBox="79.365 -2.685 94.302 169.05" enable-background="new 79.365 -2.685 94.302 169.05"
	 xml:space="preserve">
<path fill="#FFFFFF" d="M111.218,111.255c-0.531,0-0.959-0.099-1.271-0.17c-0.099-0.023-0.217-0.051-0.365-0.08l-4.394-0.858
	l2.005-4.003c0.073-0.146,0.137-0.292,0.199-0.432c0.23-0.516,0.517-1.159,1.028-1.801c0.241-0.303,0.495-0.557,0.742-0.772
	c-3.386-2.549-6.382-5.717-8.932-9.443c-4.838,3.39-14.729,6.022-16.556,6.218s-4.224-1.72-4.224-1.72s-0.411-2.404,0.561-3.971
	s0.166-0.277,0.247-0.418c0.288-0.502,0.646-1.126,1.194-1.735c0.823-0.92,1.68-1.826,2.537-2.73
	c0.531-0.562,1.063-1.122,1.587-1.688c5.315-5.746,5.315-5.746,6.438-14.016c0.436-3.212,0.851-6.427,1.266-9.643
	c0.8-6.205,1.627-12.62,2.599-18.927c1.311-8.497,3.453-16.524,6.368-23.86c0.331-0.828,5.958-15.624,15.906-21.748
	c2.406-1.481,4.991-2.141,7.579-2.141c2.834,0,5.767,0.707,8.412,2.564c8.122,5.701,14.45,18.733,14.738,19.371
	c4.26,9.423,6.639,19.256,8.234,26.77c1.708,8.033,3.012,16.6,3.986,26.19c0.138,1.351,0.343,2.698,0.56,4.123
	c0.109,0.72,0.219,1.44,0.32,2.162c0.21,1.508,0.763,2.715,1.689,3.689c1.278,1.343,2.576,2.67,3.874,3.996
	c1.16,1.186,2.32,2.371,3.468,3.569c0.097,0.102,0.201,0.197,0.305,0.294c0.783,0.733,2.241,2.099,2.29,4.47l0.058,2.773
	l-2.705,0.614c-0.688,0.156-1.453,0.235-2.276,0.235c-4.115,0-10.07-2.021-15.147-5.016c-2.344,3.684-5.193,6.847-8.502,9.432
	c1.045,0.868,2.312,2.265,2.507,4.603l0.236,2.83l-2.743,0.738l-0.168,0.057c-0.413,0.144-1.104,0.384-1.956,0.388
	c-10.563,0.045-21.126,0.067-31.688,0.088H111.218z"/>
<title>gopingu-logo</title>
<desc>Created with Sketch.</desc>
<g id="Page-1">
	<g id="gopingu-logo">
		<path id="Shape" fill="#2E3E48" d="M106.891,18.691c12.554-0.214,24.938-0.425,37.458-0.639c0.47,0.923,0.93,1.744,1.315,2.598
			c3.775,8.352,6.11,17.149,8.007,26.076c1.813,8.531,3.048,17.152,3.93,25.827c0.218,2.146,0.596,4.274,0.895,6.412
			c0.296,2.12,1.119,4.012,2.593,5.563c2.426,2.549,4.917,5.033,7.351,7.574c0.682,0.713,1.627,1.305,1.651,2.481
			c-3.757,0.853-11.933-2.008-17.638-6.155c-0.357,0.492-0.764,0.959-1.066,1.484c-2.474,4.287-5.655,7.923-9.7,10.809
			c-1.903,1.357-1.861,2.202,0.033,3.668c1.002,0.776,2.178,1.401,2.315,3.049c-0.414,0.111-0.835,0.326-1.257,0.328
			c-10.56,0.045-21.119,0.067-31.679,0.088c-0.229,0-0.459-0.084-0.983-0.187c0.307-0.612,0.493-1.192,0.848-1.638
			c0.34-0.426,0.851-0.717,1.292-1.059c2.008-1.549,2.013-2.32-0.063-3.754c-4.009-2.77-7.239-6.271-9.875-10.348
			c-0.429-0.663-0.872-1.316-1.403-2.119c-5.188,4.531-11.141,6.99-17.764,7.786c-0.127-0.167-0.253-0.333-0.38-0.499
			c0.358-0.568,0.647-1.199,1.091-1.691c1.333-1.49,2.736-2.918,4.094-4.386c5.833-6.305,6.085-6.832,7.312-15.868
			c1.288-9.503,2.396-19.034,3.855-28.51c1.22-7.909,3.201-15.658,6.167-23.122C105.762,21.276,106.286,20.112,106.891,18.691z
			 M142.782,51.752c2.376-1.786,3.828-4.33,4.704-7.21c1.187-3.907,1.312-7.869,0.341-11.841c-0.874-3.578-2.408-6.776-5.489-9.018
			c-3.766-2.741-7.529-2.634-10.837,0.62c-1.631,1.604-2.876,3.607-4.254,5.46c-0.513,0.69-0.908,1.468-1.482,2.414
			c-0.621-0.988-1.055-1.826-1.625-2.558c-1.468-1.883-2.811-3.919-4.542-5.527c-2.772-2.573-5.812-2.613-9.003-0.553
			c-2.289,1.477-3.909,3.506-4.959,6.008c-1.792,4.269-2.027,8.68-1.154,13.173c0.72,3.705,2.414,6.909,5.229,9.443
			c-0.12,0.499-0.176,0.896-0.309,1.266c-2.268,6.282-3.619,12.757-3.933,19.426c-0.387,8.206,1.736,15.667,6.908,22.146
			c2.227,2.787,4.933,5.008,8.196,6.497c6.144,2.803,13.162,1.561,17.973-3.168c2.26-2.221,3.926-4.852,5.121-7.755
			c3.695-8.97,4.663-18.243,2.545-27.718C145.398,59.212,144.019,55.696,142.782,51.752z"/>
		<path id="Shape_8_" fill="#2E3E48" d="M109.13,15.447c-0.099-0.367-0.16-0.464-0.134-0.518c2.505-5.103,5.743-9.619,10.75-12.533
			c4.181-2.433,8.413-2.149,12.49,0.375c3.978,2.463,6.729,6.082,9.201,9.946c0.3,0.469,0.56,0.966,0.806,1.465
			c0.06,0.119-0.01,0.301-0.038,0.728C131.17,15.089,120.114,15.269,109.13,15.447z"/>
		<path id="Shape_9_" fill="#FF6402" d="M129.174,158.611c-1.598,0-2.854,0-4.09,0c-0.084-0.092-0.14-0.146-0.19-0.207
			c-0.05-0.061-0.122-0.119-0.139-0.189c-0.052-0.232-0.113-0.47-0.117-0.706c-0.205-13.276-0.405-26.552-0.598-39.827
			c-0.005-0.313,0.084-0.627,0.162-1.162c1.305,0,2.608,0,4.203,0c0.066,0.801,0.183,1.642,0.196,2.483
			c0.104,6.638,0.183,13.276,0.284,19.915c0.085,5.598,0.192,11.195,0.285,16.793C129.186,156.58,129.174,157.449,129.174,158.611z"
			/>
		<path id="Shape_10_" fill="#FF6402" d="M119.283,148.916c-1.469,0-2.713,0-4.218,0c-0.532-5.391-0.484-10.793-0.529-16.188
			c-0.045-5.338-0.01-10.679-0.01-16.281c1.277-0.057,2.508-0.111,3.759-0.166c0.822,1.293,0.656,2.595,0.675,3.837
			c0.125,7.748,0.224,15.497,0.319,23.245C119.302,145.105,119.283,146.85,119.283,148.916z"/>
		<path id="Shape_11_" fill="#FF6402" d="M138.779,147.902c-1.631,0-2.941,0-4.555,0c-0.119-10.469-0.686-20.858-0.463-31.438
			c1.492,0,2.802,0,4.391,0C138.36,126.875,138.566,137.207,138.779,147.902z"/>
		<path id="Shape_13_" fill="#FF6402" d="M115.056,155.746c0-1.357,0-2.457,0-3.807c1.402-0.063,2.72-0.119,4.261-0.188
			c0,1.399,0,2.614,0,3.994C117.952,155.746,116.637,155.746,115.056,155.746z"/>
		<path id="Shape_14_" fill="#FF6402" d="M124.923,166.365c0-1.508,0-2.648,0-4.002c1.372,0,2.667,0,4.18,0c0,1.26,0,2.404,0,3.785
			C127.81,166.215,126.575,166.279,124.923,166.365z"/>
		<path id="Shape_15_" fill="#FF6402" d="M138.692,151.699c0,1.199,0,2.289,0,3.339c-1.881,0.703-2.236,0.726-4.318,0.269
			c0-1.045,0-2.129,0-3.229C135.983,151.371,136.332,151.333,138.692,151.699z"/>
		<path id="Shape_16_" fill="#FFFFFF" d="M142.782,51.752c1.237,3.943,2.616,7.46,3.43,11.103c2.118,9.475,1.15,18.749-2.545,27.717
			c-1.195,2.904-2.861,5.535-5.121,7.756c-4.812,4.729-11.831,5.971-17.973,3.168c-3.264-1.489-5.97-3.71-8.196-6.497
			c-5.172-6.479-7.295-13.939-6.908-22.146c0.313-6.669,1.664-13.144,3.933-19.426c0.133-0.37,0.188-0.767,0.309-1.266
			c-2.815-2.534-4.51-5.739-5.229-9.443c-0.873-4.493-0.638-8.904,1.154-13.173c1.051-2.502,2.67-4.531,4.959-6.008
			c3.191-2.06,6.23-2.02,9.003,0.553c1.731,1.608,3.074,3.645,4.542,5.527c0.569,0.732,1.004,1.57,1.625,2.558
			c0.574-0.946,0.97-1.724,1.482-2.414c1.378-1.853,2.623-3.855,4.254-5.46c3.308-3.254,7.071-3.36,10.837-0.62
			c3.081,2.242,4.615,5.44,5.489,9.018c0.971,3.972,0.846,7.934-0.341,11.841C146.61,47.422,145.158,49.966,142.782,51.752z
			 M131.474,51.701l-0.082,0.187c0.285-0.478,0.637-0.928,0.843-1.438c1.11-2.747,0.325-4.432-2.488-5.359
			c-2.681-0.884-5.359-0.775-7.984,0.203c-2.405,0.896-3.124,2.496-2.252,4.958c0.886,2.502,2.566,4.39,4.761,5.836
			c1.194,0.789,2.435,0.8,3.576-0.055C129.388,54.88,130.846,53.629,131.474,51.701z M117.256,39.573
			c-0.002-1.788-0.507-3.418-1.389-4.484c-1.338-1.618-3.164-1.638-4.481-0.051c-1.83,2.201-1.761,6.8,0.136,8.957
			c1.385,1.575,3.19,1.536,4.469-0.144C116.943,42.597,117.287,41.133,117.256,39.573z M142.157,39.052
			c-0.092-1.594-0.411-3.148-1.475-4.435c-1.323-1.6-3.191-1.577-4.479,0.016c-1.789,2.216-1.687,6.862,0.196,8.958
			c1.314,1.464,3.064,1.466,4.321-0.043C141.792,42.261,142.098,40.706,142.157,39.052z M129.232,56.828
			c-3.194,2.048-3.66,1.993-6.976-0.744c0.524,0.766,0.748,1.155,1.03,1.494C125.181,59.851,126.458,61.16,129.232,56.828z"/>
		<path id="Shape_17_" fill="#FF6402" d="M131.474,51.701c-0.628,1.928-2.086,3.179-3.626,4.332
			c-1.143,0.854-2.381,0.843-3.576,0.055c-2.194-1.447-3.875-3.334-4.761-5.836c-0.872-2.462-0.153-4.061,2.252-4.958
			c2.625-0.978,5.304-1.086,7.984-0.203c2.813,0.927,3.599,2.612,2.488,5.359c-0.206,0.51-0.558,0.96-0.843,1.438
			c0.015-0.823,0.703-1.842-0.724-2.394c-0.8,1.597-1.737,3.034-1.734,4.944C129.782,53.525,130.628,52.613,131.474,51.701z"/>
		<path id="Shape_18_" d="M117.256,39.573c0.031,1.56-0.313,3.023-1.267,4.278c-1.278,1.679-3.084,1.719-4.469,0.144
			c-1.896-2.157-1.965-6.756-0.136-8.957c1.318-1.587,3.145-1.566,4.481,0.051C116.748,36.155,117.253,37.785,117.256,39.573z"/>
		<path id="Shape_19_" d="M142.157,39.052c-0.06,1.654-0.365,3.209-1.436,4.496c-1.257,1.509-3.006,1.507-4.321,0.043
			c-1.883-2.096-1.984-6.742-0.196-8.958c1.286-1.592,3.154-1.616,4.479-0.016C141.747,35.903,142.065,37.458,142.157,39.052z"/>
		<path id="Shape_20_" fill="#FF6402" d="M129.232,56.828c-2.774,4.332-4.051,3.022-5.945,0.75c-0.283-0.339-0.506-0.729-1.03-1.494
			C125.572,58.821,126.038,58.876,129.232,56.828z"/>
		<path id="Shape_21_" fill="#FFFFFF" d="M131.474,51.701c-0.847,0.912-1.692,1.824-2.539,2.736
			c-0.003-1.91,0.935-3.347,1.734-4.944c1.427,0.552,0.737,1.571,0.724,2.394L131.474,51.701z"/>
	</g>
</g>
</svg>
