<svg
  width="165"
  height="28"
  viewBox="0 0 165 28"
  fill="none"
  xmlns="http://www.w3.org/2000/svg"
>
  <path
    d="M39.6184 21.275C43.1099 21.275 45.588 19.2007 45.899 16.1598L45.9091 16.049H42.9594L42.9393 16.1296C42.6182 17.6803 41.3641 18.6972 39.6284 18.6972C37.3409 18.6972 35.9262 16.764 35.9262 13.6425V13.6224C35.9262 10.5009 37.3409 8.57771 39.6184 8.57771C41.3441 8.57771 42.6383 9.68532 42.9493 11.3165V11.387H45.899V11.2662C45.6181 8.19508 43.0497 6 39.6184 6C35.4146 6 32.826 8.91 32.826 13.6224V13.6425C32.826 18.3549 35.4246 21.275 39.6184 21.275Z"
    fill="white"
  />
  <path
    d="M55.0291 21.275C59.3031 21.275 61.992 18.3348 61.992 13.6425V13.6224C61.992 8.93013 59.2931 6 55.0291 6C50.765 6 48.0561 8.92006 48.0561 13.6224V13.6425C48.0561 18.3348 50.7249 21.275 55.0291 21.275ZM55.0291 18.6972C52.6412 18.6972 51.1463 16.7136 51.1463 13.6425V13.6224C51.1463 10.5412 52.6713 8.57771 55.0291 8.57771C57.3768 8.57771 58.9018 10.5412 58.9018 13.6224V13.6425C58.9018 16.7136 57.3868 18.6972 55.0291 18.6972Z"
    fill="white"
  />
  <path
    d="M64.8714 20.9024H67.9014V15.5859H70.3795L73.0784 20.9024H76.5097L73.4597 15.1328C75.1151 14.4783 76.0783 12.8773 76.0783 11.0145V10.9943C76.0783 8.13467 74.1921 6.37256 70.9012 6.37256H64.8714V20.9024ZM67.9014 13.3706V8.74889H70.53C72.045 8.74889 72.9781 9.65511 72.9781 11.0547V11.0749C72.9781 12.5047 72.0851 13.3706 70.5702 13.3706H67.9014Z"
    fill="white"
  />
  <path
    d="M79.1383 20.9024H88.7299V18.3952H82.1683V14.7199H88.3587V12.3839H82.1683V8.87979H88.7299V6.37256H79.1383V20.9024Z"
    fill="white"
  />
  <path
    d="M98.0706 21.275C101.562 21.275 104.04 19.2007 104.351 16.1598L104.361 16.049H101.412L101.392 16.1296C101.07 17.6803 99.8163 18.6972 98.0806 18.6972C95.7931 18.6972 94.3784 16.764 94.3784 13.6425V13.6224C94.3784 10.5009 95.7931 8.57771 98.0706 8.57771C99.7963 8.57771 101.091 9.68532 101.402 11.3165V11.387H104.351V11.2662C104.07 8.19508 101.502 6 98.0706 6C93.8668 6 91.2783 8.91 91.2783 13.6224V13.6425C91.2783 18.3549 93.8768 21.275 98.0706 21.275Z"
    fill="white"
  />
  <path d="M107.15 20.9024H110.18V6.37256H107.15V20.9024Z" fill="white" />
  <path
    d="M113.692 20.9024H116.722V15.5859H119.2L121.899 20.9024H125.33L122.28 15.1328C123.936 14.4783 124.899 12.8773 124.899 11.0145V10.9943C124.899 8.13467 123.013 6.37256 119.722 6.37256H113.692V20.9024ZM116.722 13.3706V8.74889H119.351C120.866 8.74889 121.799 9.65511 121.799 11.0547V11.0749C121.799 12.5047 120.906 13.3706 119.391 13.3706H116.722Z"
    fill="white"
  />
  <path
    d="M134.109 21.275C137.601 21.275 140.079 19.2007 140.39 16.1598L140.4 16.049H137.45L137.43 16.1296C137.109 17.6803 135.855 18.6972 134.119 18.6972C131.832 18.6972 130.417 16.764 130.417 13.6425V13.6224C130.417 10.5009 131.832 8.57771 134.109 8.57771C135.835 8.57771 137.129 9.68532 137.44 11.3165V11.387H140.39V11.2662C140.109 8.19508 137.54 6 134.109 6C129.905 6 127.317 8.91 127.317 13.6224V13.6425C127.317 18.3549 129.915 21.275 134.109 21.275Z"
    fill="white"
  />
  <path
    d="M143.189 20.9024H152.66V18.3952H146.219V6.37256H143.189V20.9024Z"
    fill="white"
  />
  <path
    d="M155.409 20.9024H165.001V18.3952H158.439V14.7199H164.629V12.3839H158.439V8.87979H165.001V6.37256H155.409V20.9024Z"
    fill="white"
  />
  <path
    fill-rule="evenodd"
    clip-rule="evenodd"
    d="M14.8929 4.07428C14.3171 4.65075 14.3171 5.5783 14.8929 6.15477L21.8199 13.0898C22.3957 13.6662 23.3221 13.6662 23.898 13.0898L24.6772 12.3096C25.253 11.7331 25.253 10.8055 24.6772 10.2291L17.7503 3.29409C17.1745 2.71762 16.248 2.71762 15.6722 3.2941L14.8929 4.07428ZM3.29031 17.7709C2.71451 17.1944 2.71451 16.2668 3.29031 15.6904L4.06959 14.9102C4.64539 14.3337 5.57187 14.3337 6.14767 14.9102L13.0746 21.8452C13.6504 22.4216 13.6504 23.3492 13.0746 23.9257L12.2953 24.7059C11.7195 25.2823 10.793 25.2823 10.2172 24.7059L3.29031 17.7709ZM19.6162 2.7263L19.2655 3.07739L24.8937 8.71206L25.2443 8.36097C25.8158 7.78884 25.8028 6.84828 25.227 6.27181L21.6986 2.73931C21.1271 2.16717 20.1877 2.15417 19.6162 2.7263ZM16.0185 9.01545L9.00498 16.0371L11.9489 18.9845L18.9625 11.9628L16.0185 9.01545ZM6.26885 25.2607L2.74044 21.7282C2.16464 21.1517 2.15165 20.2111 2.72312 19.639L3.0738 19.2879L8.70194 24.9226L8.35126 25.2737C7.77979 25.8458 6.84032 25.8328 6.26885 25.2607Z"
    fill="#FFA500"
  />
</svg>
