<svg
  width="28"
  height="28"
  viewBox="0 0 28 28"
  fill="none"
  xmlns="http://www.w3.org/2000/svg"
>
  <path
    fill-rule="evenodd"
    clip-rule="evenodd"
    d="M14.8929 4.07428C14.3171 4.65075 14.3171 5.5783 14.8929 6.15477L21.8199 13.0898C22.3957 13.6662 23.3221 13.6662 23.898 13.0898L24.6772 12.3096C25.253 11.7331 25.253 10.8055 24.6772 10.2291L17.7503 3.29409C17.1745 2.71762 16.248 2.71762 15.6722 3.2941L14.8929 4.07428ZM3.29031 17.7709C2.71451 17.1944 2.71451 16.2668 3.29031 15.6904L4.06959 14.9102C4.64539 14.3337 5.57187 14.3337 6.14767 14.9102L13.0746 21.8452C13.6504 22.4216 13.6504 23.3492 13.0746 23.9257L12.2953 24.7059C11.7195 25.2823 10.793 25.2823 10.2172 24.7059L3.29031 17.7709ZM19.6162 2.7263L19.2655 3.07739L24.8937 8.71206L25.2443 8.36097C25.8158 7.78884 25.8028 6.84828 25.227 6.27181L21.6986 2.73931C21.1271 2.16717 20.1877 2.15417 19.6162 2.7263ZM16.0185 9.01545L9.00498 16.0371L11.9489 18.9845L18.9625 11.9628L16.0185 9.01545ZM6.26885 25.2607L2.74044 21.7282C2.16464 21.1517 2.15165 20.2111 2.72312 19.639L3.0738 19.2879L8.70194 24.9226L8.35126 25.2737C7.77979 25.8458 6.84032 25.8328 6.26885 25.2607Z"
    fill="#FFA500"
  />
</svg>
