<svg
  height="512"
  viewBox="0 0 64 64"
  width="512"
  xmlns="http://www.w3.org/2000/svg"
>
  <g id="Search">
    <g fill="#f97316">
      <path
        fill="white"
        d="m12.293 10.293-6 6a1 1 0 0 0 0 1.414l6 6 1.414-1.414-5.293-5.293 5.293-5.293z"
      />
      <path
        fill="white"
        d="m21.707 23.707 6-6a1 1 0 0 0 0-1.414l-6-6-1.414 1.414 5.293 5.293-5.293 5.293z"
      />
      <path
        fill="white"
        d="m8.754 16h16.492v2h-16.492z"
        transform="matrix(.243 -.97 .97 .243 -3.616 29.369)"
      />
      <path
        d="m48 36a6.953 6.953 0 0 0 4.184-1.4l5.109 5.109 1.414-1.414-5.107-5.111a6.991 6.991 0 1 0 -5.6 2.816zm0-12a5 5 0 1 1 -5 5 5.006 5.006 0 0 1 5-5z"
      />
      <path d="m31 26h4v2h-4z" />
      <path d="m37 26h2v2h-2z" />
      <path d="m29 30h4v2h-4z" />
      <path d="m35 30h4v2h-4z" />
      <path d="m29 34h2v2h-2z" />
      <path d="m33 34h6v2h-6z" />
      <path d="m29 38h10v2h-10z" />
      <path
        d="m57 16h-25.051a14.991 14.991 0 1 0 -17.949 15.7v6.486a3 3 0 0 0 -2 2.814v18a3 3 0 0 0 3 3h4a3 3 0 0 0 3-3v-9h13v6h-3a3 3 0 0 0 0 6h14a3 3 0 0 0 0-6h-3v-6h14a5.006 5.006 0 0 0 5-5v-24a5.006 5.006 0 0 0 -5-5zm3 5v21h-38v-1a3 3 0 0 0 -2-2.816v-6.484a15.018 15.018 0 0 0 11.949-13.7h25.051a3 3 0 0 1 3 3zm-56-4a13 13 0 1 1 13 13 13.015 13.015 0 0 1 -13-13zm13 15c.338 0 .668-.029 1-.051v6.051h-2v-6.051c.332.022.662.051 1 .051zm3 27a1 1 0 0 1 -1 1h-4a1 1 0 0 1 -1-1v-18a1 1 0 0 1 1-1h4a1 1 0 0 1 1 1zm27 0a1 1 0 0 1 -1 1h-14a1 1 0 0 1 0-2h14a1 1 0 0 1 1 1zm-6-3h-4v-6h4zm16-8h-35v-4h38v1a3 3 0 0 1 -3 3z"
      />
    </g>
  </g>
</svg>
