<svg
  width="591"
  height="199"
  viewBox="0 0 591 199"
  fill="none"
  xmlns="http://www.w3.org/2000/svg"
>
  <path
    d="M585.558 29.988C581.179 24.6417 574.657 21.6034 567.217 21.4385C558.859 21.2501 550.054 21.2501 541.013 21.3914C533.361 21.5327 526.557 24.8536 521.872 30.2C517.281 24.8772 510.736 21.627 503.39 21.4385C494.538 21.2266 485.379 21.2266 475.42 21.4385C464.802 21.6741 456.208 28.3158 453.383 37.8074C446.202 30.2471 437.279 24.8301 426.92 21.9567C411.334 17.6466 395.654 18.0941 380.256 23.2992C369.755 26.832 360.926 32.7908 353.957 40.775V28.622C353.957 27.0911 353.91 25.5366 353.769 24.0057C352.592 10.0156 342.468 0.406278 328.577 0.12365C321.02 -0.0412166 313.533 -0.0412166 306.305 0.12365C298.959 0.288516 292.744 3.13835 288.294 7.84882C288.27 7.84882 288.176 7.84882 288.176 7.84882L270.777 25.3953C270.777 25.3953 270.824 25.3953 270.848 25.3953C269.153 26.7849 267.669 28.4336 266.398 30.2707C252.578 19.9076 235.438 13.7134 216.862 13.7134C191.411 13.7134 168.621 25.2776 153.411 43.4129C148.091 25.4189 135.965 12.3002 118.002 5.44648C108.961 1.98429 99.0252 0.241412 87.63 0.12365C77.8594 -0.0176643 68.0887 -0.0176643 58.3415 0.0294404H47.0641C45.7221 0.0294404 44.3565 0.100098 43.0381 0.264964C36.3045 1.11285 30.9601 3.63295 26.9812 7.68396V7.6133L8.68766 25.9841C8.68766 25.9841 8.75829 26.0312 8.75829 26.0548C7.11023 27.4915 5.60342 29.0695 4.37915 30.9772C0.49442 37.0066 0 43.2245 0 47.982V168.405C0 169.63 0.0470876 170.878 0.117719 172.079C1.03593 186.47 11.2304 196.409 25.4979 196.762C29.1943 196.856 32.8907 196.904 36.5635 196.904C40.2364 196.904 43.9798 196.856 47.582 196.762C57.3762 196.48 65.287 191.628 69.5013 183.973C75.1754 192.311 84.122 196.856 95.1405 196.856H97.2359C102.51 196.856 107.807 196.856 113.081 196.856C115.011 196.856 116.919 196.692 118.731 196.409C123.911 195.561 128.337 193.324 131.751 190.05C131.751 190.073 131.775 190.144 131.775 190.144L143.193 178.721C157.72 191.298 176.602 199 197.297 199C223.172 199 246.292 187.059 261.501 168.405V169.206C261.501 170.054 261.501 170.902 261.548 171.773C262.372 185.952 271.625 195.679 285.163 196.574C289.236 196.833 293.309 196.927 297.24 196.927C301.879 196.927 306.328 196.786 310.354 196.621C316.664 196.385 322.15 194.007 326.317 190.097V190.144L327.659 188.802C327.659 188.802 327.8 188.66 327.871 188.59L337.147 179.31C345.552 187.812 356.383 193.7 369.402 196.645C376.418 198.223 383.764 199 391.934 199C396.077 199 400.433 198.811 405.048 198.411C415.007 197.563 423.694 195.938 431.558 193.465C435.607 192.193 439.139 190.191 442.011 187.624C444.907 190.474 448.486 192.711 452.63 194.124C462.306 197.422 472.477 199.023 483.707 199C484.131 199 484.531 199 484.955 199C493.431 198.906 500.8 197.846 507.44 195.75C516.904 192.758 525.215 187.459 532.278 180.087V180.134L551.561 160.845V160.798C554.645 157.618 557.517 154.062 560.131 150.081C566.841 139.789 571.832 128.013 575.363 114.117C578.306 102.6 581.037 90.8944 583.674 79.5893L586.547 67.3185C587.912 61.5717 589.325 55.6601 590.384 49.5365C591.656 42.2588 589.937 35.3109 585.581 29.988H585.558Z"
    fill="#010101"
  />
  <path
    d="M80.2381 103.895C78.7784 104.107 77.4364 104.296 75.8354 104.531C76.1415 107.075 76.5182 109.524 76.683 111.997C77.2009 119.534 77.7424 127.071 78.025 134.608C78.2369 140.166 78.1191 145.724 78.025 151.259C77.8837 158.207 73.7164 162.564 66.771 162.776C59.6843 162.965 52.5506 162.965 45.4639 162.776C38.542 162.588 34.516 158.466 34.0687 151.542C34.0216 150.623 33.998 149.705 33.998 148.786C33.998 108.653 33.998 68.4963 33.998 28.3631C33.998 25.1128 34.2806 21.9568 36.0934 19.1305C38.1418 15.9274 41.3673 14.9382 44.8753 14.4907C45.6051 14.3965 46.3585 14.373 47.1119 14.373C60.579 14.373 74.0461 14.3023 87.4896 14.4672C96.1772 14.5614 104.724 15.7154 112.917 18.8479C127.608 24.4534 136.861 34.9106 140.487 50.1961C142.912 60.3943 143.241 70.7338 140.934 81.0026C138.627 91.1772 133.447 99.5147 124.477 105.167C122.546 106.392 120.451 107.334 118.332 108.441C121.581 113.952 124.806 119.464 128.056 124.975C132.364 132.276 136.673 139.577 140.934 146.879C141.687 148.15 142.394 149.493 142.912 150.882C145.101 156.841 142.3 161.575 136.037 162.588C134.907 162.776 133.753 162.847 132.623 162.871C126.666 162.894 120.71 162.871 114.753 162.871C107.996 162.871 102.722 160.186 99.6617 153.991C94.6469 143.84 88.7845 134.066 85.5119 123.138C83.7932 117.438 82.357 111.668 80.8031 105.921C80.6148 105.261 80.4735 104.602 80.2852 103.872L80.2381 103.895ZM78.1427 90.1173C80.4264 90.1173 82.5218 90.1409 84.6408 90.1173C91.7981 89.9996 96.86 86.3018 98.9789 79.4952C101.027 72.9241 100.862 66.3059 99.0496 59.6877C98.2726 56.885 96.9306 54.3884 94.9059 52.2687C90.1971 47.3227 84.1934 48.0057 78.1662 48.1941V90.0938L78.1427 90.1173Z"
    fill="white"
  />
  <path
    d="M390.287 118.286C390.122 119.935 389.981 121.418 389.816 123.138C394.054 123.585 398.127 124.315 402.2 124.362C415.597 124.551 428.993 124.457 442.389 124.551C444.65 124.551 447.028 124.763 449.147 125.446C453.149 126.741 455.574 129.85 455.857 133.972C456.21 139.035 456.28 144.17 455.857 149.21C455.386 154.721 452.137 158.443 446.792 160.115C439.164 162.517 431.324 163.765 423.39 164.448C412.913 165.343 402.459 165.32 392.123 162.988C373.689 158.843 361.305 147.962 355.113 130.038C351.322 119.063 350.357 107.711 350.38 96.2173C350.404 85.5481 351.864 75.1144 355.819 65.1282C361.258 51.3736 370.769 41.67 384.872 36.9125C397.444 32.673 410.323 32.2727 423.107 35.8055C435.538 39.2442 444.673 47.0635 450.677 58.4864C455.456 67.6247 457.575 77.4932 457.952 87.7149C458.187 94.1683 458.187 100.645 457.975 107.122C457.74 113.999 453.455 118.145 446.533 118.192C428.546 118.309 410.558 118.262 392.571 118.262C391.888 118.262 391.205 118.262 390.311 118.262L390.287 118.286ZM392.312 90.235H417.786C417.598 85.5952 417.433 81.0731 415.926 76.7631C414.961 73.9839 413.525 71.3225 410.511 70.2626C404.884 68.2842 397.374 68.873 394.407 77.1163C392.877 81.3322 392.618 85.6894 392.312 90.235Z"
    fill="white"
  />
  <path
    d="M492.161 128.248C491.125 124.998 490.113 121.724 489.077 118.474C481.943 95.8873 474.762 73.3242 467.699 50.7139C467.016 48.5236 466.592 46.0977 466.757 43.8366C467.11 39.1968 470.713 35.8995 475.727 35.8053C484.839 35.6169 493.95 35.5698 503.038 35.8053C508.477 35.9466 512.55 39.715 513.845 45.4617C514.904 50.1487 515.587 54.9062 516.388 59.6403C519.542 78.3644 520.837 97.2534 520.861 116.237C520.861 116.684 520.861 117.155 520.861 117.744H525.687C525.711 117.202 525.758 116.613 525.758 116.001C526.088 102.27 526.158 88.5155 526.865 74.7844C527.383 65.1515 528.677 55.5422 529.878 45.9328C530.632 39.9976 535.293 35.8524 541.273 35.7346C549.796 35.5698 558.343 35.5698 566.866 35.7582C573.387 35.8995 577.295 40.5393 576.189 46.9926C575.012 53.7993 573.316 60.5353 571.739 67.2477C568.349 81.6617 565.076 96.0993 561.403 110.466C558.555 121.654 554.411 132.37 548.054 142.121C541.838 151.683 533.692 158.866 522.65 162.352C516.717 164.236 510.572 164.872 504.357 164.943C494.963 165.037 485.734 163.859 476.81 160.821C471.254 158.937 467.982 154.297 467.934 148.409C467.864 142.403 467.84 136.374 468.005 130.368C468.052 128.531 468.523 126.623 469.182 124.88C470.053 122.525 472.219 121.489 474.621 122.219C476.575 122.808 478.411 123.797 480.342 124.527C484.133 125.964 487.923 127.353 491.714 128.766C491.855 128.578 492.02 128.366 492.161 128.178V128.248Z"
    fill="white"
  />
  <path
    d="M339.597 88.7277C339.597 108.889 339.597 129.026 339.573 149.187C339.573 151.071 339.456 153.002 338.985 154.792C337.737 159.715 334.229 162.47 329.332 162.659C321.445 162.965 313.51 163.13 305.647 162.611C299.149 162.188 295.852 157.995 295.476 151.353C295.429 150.67 295.452 149.987 295.452 149.304C295.452 108.889 295.452 68.4492 295.452 28.0333C295.452 26.8322 295.499 25.631 295.688 24.4534C296.582 18.2827 300.42 14.6556 306.659 14.5143C313.863 14.3494 321.091 14.3494 328.319 14.5143C334.912 14.6556 338.938 18.6595 339.479 25.207C339.573 26.3376 339.62 27.4916 339.62 28.6457C339.62 48.6887 339.62 68.7318 339.62 88.7749L339.597 88.7277Z"
    fill="white"
  />
  <path
    d="M285.281 96.5471C285.281 134.349 254.65 164.99 216.863 164.99C179.075 164.99 148.444 134.349 148.444 96.5471C148.444 58.7456 179.075 28.104 216.863 28.104C254.65 28.104 285.281 58.7456 285.281 96.5471ZM195.697 44.6378C187.292 44.6378 180.487 51.4444 180.487 59.8526C180.487 68.2608 187.292 75.0674 195.697 75.0674C204.102 75.0674 210.906 68.2608 210.906 59.8526C210.906 51.4444 204.102 44.6378 195.697 44.6378ZM175.449 81.3559C167.044 81.3559 160.24 88.1625 160.24 96.5707C160.24 104.979 167.044 111.786 175.449 111.786C183.854 111.786 190.658 104.979 190.658 96.5707C190.658 88.1625 183.854 81.3559 175.449 81.3559ZM196.733 116.732C188.328 116.732 181.523 123.538 181.523 131.946C181.523 140.355 188.328 147.161 196.733 147.161C205.138 147.161 211.942 140.355 211.942 131.946C211.942 123.538 205.138 116.732 196.733 116.732ZM222.772 59.8761C222.772 68.2843 229.576 75.091 237.981 75.091C246.387 75.091 253.191 68.2843 253.191 59.8761C253.191 51.4679 246.387 44.6613 237.981 44.6613C229.576 44.6613 222.772 51.4679 222.772 59.8761ZM243.02 96.5943C243.02 105.002 249.824 111.809 258.229 111.809C266.634 111.809 273.438 105.002 273.438 96.5943C273.438 88.1861 266.634 81.3794 258.229 81.3794C249.824 81.3794 243.02 88.1861 243.02 96.5943ZM221.736 131.97C221.736 140.378 228.54 147.185 236.945 147.185C245.351 147.185 252.155 140.378 252.155 131.97C252.155 123.562 245.351 116.755 236.945 116.755C228.54 116.755 221.736 123.562 221.736 131.97ZM216.839 86.9613C211.518 86.9613 207.186 91.2714 207.186 96.6178C207.186 101.964 211.495 106.274 216.839 106.274C222.184 106.274 226.492 101.964 226.492 96.6178C226.492 91.2714 222.184 86.9613 216.839 86.9613Z"
    fill="white"
  />
</svg>
