<?xml version="1.0" encoding="UTF-8"?>
<svg xmlns="http://www.w3.org/2000/svg" width="183" height="32" viewBox="0 0 183 32" fill="white">
  <path
    d="M50.9566 9.29688C52.7184 9.29688 54.8136 9.77307 56.9564 11.4873C56.5755 12.0587 55.0993 14.011 54.7184 14.6301C53.4327 13.4872 52.0042 13.2968 51.2423 13.2968C49.0519 13.2968 47.5281 14.7253 47.5281 16.7728C47.5281 18.8204 49.0519 20.2966 51.2423 20.2966C51.9566 20.2966 53.4327 20.1061 54.7184 18.9633C55.0993 19.5347 56.5755 21.487 56.9564 22.106C54.8136 23.8203 52.7184 24.2488 50.9566 24.2488C46.052 24.2488 42.7188 20.9632 42.7188 16.7728C42.7188 12.5825 46.052 9.29688 50.9566 9.29688Z"></path>
  <path
    d="M65.2415 24.2488C60.7654 24.2488 57.1465 20.9156 57.1465 16.7728C57.1465 12.6301 60.7654 9.29688 65.2415 9.29688C69.7175 9.29688 73.3365 12.6301 73.3365 16.7728C73.3365 20.9156 69.7175 24.2488 65.2415 24.2488ZM65.2415 20.2966C67.289 20.2966 68.7176 18.8204 68.7176 16.7728C68.7176 14.6777 67.289 13.2015 65.2415 13.2015C63.1939 13.2015 61.7654 14.6777 61.7654 16.7728C61.7654 18.868 63.1939 20.2966 65.2415 20.2966Z"></path>
  <path
    d="M75.0029 9.63042H79.7647V11.5351C80.8123 10.0114 82.1932 9.34473 84.0503 9.34473C88.2406 9.34473 89.0978 12.8208 89.0978 15.9636V24.011H84.336V16.2493C84.336 14.8684 83.8122 13.1541 82.0504 13.1541C80.3361 13.1541 79.7647 14.5827 79.7647 16.2493V24.011H75.0029V9.63042Z"></path>
  <path
    d="M91.4316 9.63042H96.1934V11.5351C97.241 10.0114 98.6219 9.34473 100.479 9.34473C104.669 9.34473 105.526 12.8208 105.526 15.9636V24.011H100.765V16.2493C100.765 14.8684 100.241 13.1541 98.4791 13.1541C96.7648 13.1541 96.1934 14.5827 96.1934 16.2493V24.011H91.4316V9.63042Z"></path>
  <path
    d="M107.003 16.8205C107.003 12.7254 110.098 9.29688 115.003 9.29688C119.336 9.29688 122.622 11.9635 122.622 17.0586C122.622 17.249 122.622 17.4871 122.574 17.6776H111.527C111.574 18.9633 113.098 20.4394 115.812 20.4394C117.193 20.4394 118.479 19.9632 119.764 18.868C120.145 19.249 121.717 21.2013 122.098 21.5822C120.193 23.5822 117.717 24.2488 115.384 24.2488C110.098 24.2488 107.003 20.9156 107.003 16.8205ZM111.622 15.1062H118.145C118.003 13.4872 116.384 12.8206 114.955 12.8206C113.622 12.8682 111.908 13.4396 111.622 15.1062Z"></path>
  <path
    d="M131.573 9.29688C133.335 9.29688 135.43 9.77307 137.573 11.4873C137.192 12.0587 135.716 14.011 135.335 14.6301C134.049 13.4872 132.62 13.2968 131.859 13.2968C129.668 13.2968 128.144 14.7253 128.144 16.7728C128.144 18.8204 129.668 20.2966 131.859 20.2966C132.573 20.2966 134.049 20.1061 135.335 18.9633C135.716 19.5347 137.192 21.487 137.573 22.106C135.43 23.8203 133.335 24.2488 131.573 24.2488C126.668 24.2488 123.335 20.9632 123.335 16.7728C123.335 12.5825 126.668 9.29688 131.573 9.29688Z"></path>
  <path
    d="M145.192 24.2495C142.668 24.2495 140.001 23.2972 140.001 19.1068V13.2022H137.906V9.58329H140.382L141.001 6.05957H144.668V9.58329H148.43V13.2022H144.668V19.3449C144.668 19.9639 144.954 20.4401 145.573 20.4401C146.287 20.4401 146.525 19.8211 146.525 19.2021C146.525 18.7259 146.382 18.1544 146.287 17.964H149.668C149.954 18.4402 150.049 19.1068 150.096 19.6782C150.192 22.5829 148.192 24.2495 145.192 24.2495Z"></path>
  <path
    d="M156.811 9.82094H159.858V13.2018H156.858V23.9634H152.097V13.2018H150.287V9.82094H152.097V8.91619C152.097 4.72584 154.954 3.58301 157.477 3.58301C160.382 3.58301 162.287 5.20203 162.287 7.77338C162.287 7.96385 162.239 8.44001 162.144 8.6781H158.62C158.715 8.58286 158.715 8.34479 158.715 8.24956C158.715 7.63053 158.43 7.15433 157.716 7.15433C157.001 7.15433 156.763 7.77336 156.763 8.34477V9.82094H156.811Z"></path>
  <path
    d="M175.715 23.9638H170.953V22.0591C169.906 23.5828 168.525 24.2495 166.715 24.2495C162.525 24.2495 161.62 20.7734 161.62 17.6783V9.63086H166.382V17.3925C166.382 19.0115 166.953 20.4877 168.668 20.4877C170.429 20.4877 170.953 19.0115 170.953 17.3925V9.63086H175.715V23.9638Z"></path>
  <path d="M178.238 23.9633V3.96387H183V23.9633H178.238Z"></path>
  <path
    d="M29.2426 20.3446C29.0521 19.0113 28.3378 17.8208 27.2902 17.0113C26.195 16.2018 24.6236 15.9637 23.576 16.059C22.2428 16.2018 21.338 16.6304 20.3857 17.8208C20.2428 18.0113 20.1 18.2494 20.0524 18.297C20.0524 18.297 20.0047 18.3446 20.0047 18.3922C19.7666 18.7256 18.7191 20.1541 16.7191 20.3446C15.7192 20.4398 14.7668 20.1541 14.0049 19.4874C13.1478 18.8208 12.5764 17.7732 12.3859 16.5828C12.0526 14.3448 13.4811 12.2019 15.5763 11.7734L15.3382 14.059C15.2906 14.6304 15.6715 15.1066 16.243 15.1543C16.2906 15.1543 16.2906 15.1543 16.3382 15.1543C16.862 15.1543 17.2429 14.7733 17.3382 14.2495L17.9096 8.77348L14.5287 8.05922C12.4811 7.63066 12.4811 7.63066 12.2431 7.58304C11.6716 7.53542 11.1955 7.96398 11.1955 8.53539C11.1478 9.1068 11.5288 9.44014 12.1478 9.58299C12.2431 9.58299 12.4812 9.67821 14.1002 10.0115L14.2906 10.0592C11.6716 11.0591 10.005 13.9162 10.4336 16.8685C10.6717 18.5351 11.5288 20.0589 12.7669 21.0588C13.8145 21.9159 15.1001 22.3445 16.4334 22.3445C16.7191 22.3445 16.9572 22.3445 17.2429 22.2969C17.2905 22.2969 17.5762 22.2493 17.6238 22.2493C20.1952 21.7255 21.719 19.5351 21.8142 19.3922C21.8618 19.3446 22.1951 18.916 22.2428 18.8684C22.5285 18.6303 23.0999 18.2018 23.8618 18.1065C24.6713 18.0113 25.4332 18.2018 26.0998 18.6779C26.7665 19.1541 27.1474 19.8684 27.2902 20.6779C27.3379 21.1064 27.3378 21.4874 27.2426 21.7731C27.195 21.8683 27.1474 22.0588 27.1474 22.154C27.0998 22.2493 27.0521 22.4874 27.0045 22.4874C25.3379 26.1539 22.2428 28.3919 18.0524 29.011C17.4334 29.1062 16.7667 29.1538 16.1477 29.1538C13.3859 29.1538 10.6717 28.2967 8.43365 26.6301C5.57659 24.5825 3.7195 21.4874 3.19571 17.9637C2.71953 14.4876 3.62427 11.0591 5.81468 8.2497C7.81462 5.63073 11.1478 3.72601 14.5287 3.20221C14.5763 3.20221 14.6716 3.15461 14.7192 3.15461C14.7668 3.15461 14.862 3.15459 14.9097 3.10697C18.5762 2.39271 21.4333 3.6784 23.338 4.58314C23.4332 4.63075 23.4808 4.67838 23.5284 4.67838C23.5761 4.72599 23.7189 4.82122 23.7189 4.82122C23.8142 4.86884 23.957 5.01168 24.0999 5.10692C24.2903 5.29739 24.4808 5.53549 24.6713 5.77358C25.0998 6.44022 25.195 7.29734 25.0046 8.05922C24.8141 8.8211 24.3379 9.48776 23.6237 9.91632C22.9094 10.3449 22.0999 10.4877 21.338 10.2496C20.8142 10.1068 20.2428 10.4401 20.1 10.9639C19.9571 11.4877 20.2904 12.0591 20.8142 12.202C21.2428 12.2972 21.6237 12.3448 22.0523 12.3448C22.957 12.3448 23.8618 12.1067 24.6713 11.6305C25.8141 10.9163 26.6236 9.82107 26.9569 8.53539C27.2902 7.24972 27.0521 5.86881 26.3855 4.72598C26.0046 4.10695 25.4808 3.53555 24.8617 3.15461C24.6236 2.96414 24.3856 2.86891 24.1951 2.77367C23.0047 2.15464 19.4333 0.488014 14.6239 1.15466C14.5287 1.15466 14.3382 1.20228 14.2906 1.20228C10.386 1.82131 6.52896 4.01171 4.1957 7.01162C1.67196 10.2496 0.576744 14.2495 1.14816 18.2494C1.71957 22.2969 3.86237 25.8682 7.1956 28.2491C9.81457 30.1538 12.9097 31.1538 16.1001 31.1538C16.8144 31.1538 17.5762 31.1062 18.2905 31.0109C23.1951 30.2967 26.5283 27.6777 28.6711 23.4873C28.7188 23.3921 28.9092 22.9159 29.0045 22.5826C29.2902 21.8207 29.3378 21.0588 29.2426 20.3446Z" stroke="white" stroke-miterlimit="10"></path>
</svg>
