<svg xmlns="http://www.w3.org/2000/svg" xmlns:xlink="http://www.w3.org/1999/xlink" id="Layer_1" data-name="Layer 1"
     viewBox="0 0 826.81 272">
  <path fill="#7bc9cd"
        d="M166.18 50.12s-46 29.48-55.2 71.75c0 0-22-54.41 17.86-114.51C128.86 7.36 150.49-26.24 166.18 50.12z"
        transform="translate(0 0)"/>
  <path fill="#2c96d3"
        d="M95.91 57.84S85 110.12 109.34 146.32c0 0-55.33-23.46-71.13-93.19C38.24 53.13 28.94 14.57 95.91 57.84z"
        transform="translate(0 0)"/>
  <path fill="#b068a7"
        d="M51.85 111.36s30.49 44.43 74.22 53.36c0 0-56.29 21.25-118.45-17.26C7.62 147.46-27.14 126.53 51.85 111.36z"
        transform="translate(0 0)"/>
  <path fill="#d9418c" d="M59.84 179.29s54.08 10.56 91.53-13c0 0-24.27 53.49-96.41 68.76C55 235 15.08 244 59.84 179.29z"
        transform="translate(0 0)"/>
  <path fill="#c20e0f" d="M115.2 221.88s46-29.48 55.2-71.75c0 0 22 54.41-17.85 114.51.0.0-21.66 33.6-37.35-42.76z"
        transform="translate(0 0)"/>
  <path fill="#f18f00"
        d="M185.48 214.16S196.4 161.88 172 125.68c0 0 55.33 23.46 71.13 93.19C243.14 218.87 252.44 257.42 185.48 214.16z"
        transform="translate(0 0)"/>
  <path fill="#f8d500"
        d="M229.53 160.64S199 116.21 155.31 107.28c0 0 56.29-21.25 118.45 17.26.0.019999999999996 34.76 20.93-44.23 36.1z"
        transform="translate(0 0)"/>
  <path fill="#d2d500" d="M221.54 92.71s-54-10.56-91.53 13c0 0 24.27-53.49 96.41-68.76C226.42 37 266.3 28 221.54 92.71z"
        transform="translate(0 0)"/>
  <g>
    <path fill="white"
          d="M327.62 186a67.71 67.71.0 01.65-9.8q.64-4.49 1.94-9.69h20.06v8a73.32 73.32.0 00.85 11.78 26.94 26.94.0 002.8 8.63 13 13 0 005.19 5.31A16.25 16.25.0 00367 202q7.4.0 11.28-3.9t3.89-11.44a43.21 43.21.0 00-.54-7.09 28.93 28.93.0 00-1.9-6.41 43.37 43.37.0 00-3.65-6.71 89 89 0 00-5.88-7.87l-26.95-31a77 77 0 01-11.08-17.89 48 48 0 01-3.89-19.25 41.48 41.48.0 012.64-15 33.34 33.34.0 017.64-11.82 34 34 0 0112.32-7.72 47 47 0 0116.62-2.75q11.28.0 18.82 3.09a32 32 0 0112 8.1 29 29 0 016.34 11.24A43.74 43.74.0 01406.57 88a52.45 52.45.0 01-.85 9.8c-.57 3-1.21 6.29-2 9.89h-20V99.91q0-13.12-3.89-20.11t-12.68-7q-7.29.0-10.88 3.91t-3.59 10.47a32.44 32.44.0 00.55 6.27 23.93 23.93.0 001.6 5.16 28.66 28.66.0 002.54 4.58c1 1.48 2.13 3 3.39 4.63l30 35.13a99.69 99.69.0 0112.57 19.82 47.37 47.37.0 014.39 20.12A41.83 41.83.0 01405 198.71a33 33 0 01-8.13 12 36.36 36.36.0 01-12.78 7.57 50.23 50.23.0 01-16.87 2.65q-11.58.0-19.21-3A32.23 32.23.0 01335.85 210a27.92 27.92.0 01-6.39-11.19A45.23 45.23.0 01327.62 186zM446.53 54.56h29.74l31.55 164.8H481.67L477 189.84H445.83l-4.49 29.52H415.09zM474 171 462 88.91h-1.1L448.83 171zm74.9 50.23q-9.58.0-16.07-2.89a27.13 27.13.0 01-10.43-7.86 30.62 30.62.0 01-5.64-11.63 56.9 56.9.0 01-1.7-14.09 109.83 109.83.0 01.7-11.72 124.59 124.59.0 012.1-13.07H538.5l-.3 20.06a81.1 81.1.0 00.59 10.67 23.66 23.66.0 001.85 6.85 8.15 8.15.0 003.2 3.66 9.39 9.39.0 004.74 1.11 9.59 9.59.0 004.14-.87 7.3 7.3.0 003.14-3 18 18 0 002-5.88 51.28 51.28.0 00.7-9.31l.3-128.33h25.85V179.76q0 12.75-3 20.85a31.55 31.55.0 01-8 12.68 27.08 27.08.0 01-11.48 6.28A52.51 52.51.0 01548.88 221.25zM624.17 54.56h29.75l31.54 164.8H659.31l-4.69-29.52H623.47L619 219.36H592.73zM651.62 171l-12-82.11h-1.09L626.47 171zM700.07 54.56h28q4.78.0 10.53.39a62.64 62.64.0 0111.47 1.88 46.53 46.53.0 0111.08 4.49 32.17 32.17.0 019.48 8.2 40.21 40.21.0 016.64 13.07 63.38 63.38.0 012.5 19.06v4.15q0 18.81-5.59 30.63t-16.47 17l27.35 65.9H757.76L735.1 157.71h-9.68v61.65H700.07zm29.24 85.1a39.55 39.55.0 0011.48-1.44 15.8 15.8.0 007.59-4.87 21.28 21.28.0 004.19-9.07 63.85 63.85.0 001.3-14v-13a44.25 44.25.0 00-1.2-11 16 16 0 00-11.58-12.06 40.41 40.41.0 00-11.78-1.45h-3.89v66.86zM801 54.56h25.85v164.8H801z"
          />
  </g>
</svg>
