<svg
  xmlns="http://www.w3.org/2000/svg"
  width="280"
  height="272"
  viewBox="0 0 280 272"
>
  <path
    fill="#7bc9cd"
    d="M166.18 50.12s-46 29.48-55.2 71.75c0 0-22-54.41 17.86-114.51C128.86 7.36 150.49-26.24 166.18 50.12z"
  />
  <path
    fill="#2c96d3"
    d="M95.91 57.84S85 110.12 109.34 146.32c0 0-55.33-23.46-71.13-93.19C38.24 53.13 28.94 14.57 95.91 57.84z"
  />
  <path
    fill="#b068a7"
    d="M51.85 111.36s30.49 44.43 74.22 53.36c0 0-56.29 21.25-118.45-17.26C7.62 147.46-27.14 126.53 51.85 111.36z"
  />
  <path
    fill="#d9418c"
    d="M59.84 179.29s54.08 10.56 91.53-13c0 0-24.27 53.49-96.41 68.76C55 235 15.08 244 59.84 179.29z"
  />
  <path
    fill="#c20e0f"
    d="M115.2 221.88s46-29.48 55.2-71.75c0 0 22 54.41-17.85 114.51.0.0-21.66 33.6-37.35-42.76z"
  />
  <path
    fill="#f18f00"
    d="M185.48 214.16S196.4 161.88 172 125.68c0 0 55.33 23.46 71.13 93.19C243.14 218.87 252.44 257.42 185.48 214.16z"
  />
  <path
    fill="#f8d500"
    d="M229.53 160.64S199 116.21 155.31 107.28c0 0 56.29-21.25 118.45 17.26.0.019999999999996 34.76 20.93-44.23 36.1z"
  />
  <path
    fill="#d2d500"
    d="M221.54 92.71s-54-10.56-91.53 13c0 0 24.27-53.49 96.41-68.76C226.42 37 266.3 28 221.54 92.71z"
  />
</svg>
