<svg width="99" height="70" viewBox="0 0 99 70" fill="none"
  xmlns="http://www.w3.org/2000/svg">
  <path fill-rule="evenodd" clip-rule="evenodd"
    d="M71.1789 56.4482C71.1789 56.4482 71.1789 56.4482 72.1213 56.4482C72.3707 56.4482 72.4773 56.4659 72.4773 56.8397C72.4773 56.8397 72.4773 56.8397 72.4773 68.6661C72.4773 69.3242 70.5208 70 69.1514 70C66.2875 70 64.4021 68.3285 64.4021 64.8782C64.4021 62.5663 65.8965 59.7741 68.8131 59.7741C69.6844 59.7741 70.2537 59.9873 70.8407 60.3078C70.8407 60.3078 70.8407 60.3078 70.8407 56.893C70.8407 56.5548 70.8585 56.4482 71.1789 56.4482ZM53.3042 59.7208C54.1755 59.7208 55.0646 59.934 55.7405 60.4144C56.8434 61.1791 57.5548 62.6196 57.5548 64.8782C57.5548 67.1189 56.8434 68.5595 55.7405 69.3242C55.0824 69.769 54.1933 70 53.3042 70C52.4501 70 51.5432 69.7868 50.8851 69.3242C49.8 68.5595 49.0886 67.1189 49.0886 64.8782C49.0886 62.6196 49.8 61.1791 50.8851 60.4144C51.5788 59.9695 52.4678 59.7208 53.3042 59.7208ZM30.3604 59.7208C31.2495 59.7208 32.1563 59.934 32.8144 60.4144C33.8995 61.1791 34.6287 62.6196 34.6287 64.8782C34.6287 67.1189 33.8995 68.5595 32.8144 69.3242C32.1208 69.769 31.2495 70 30.3604 70C29.5062 70 28.5816 69.7868 27.9235 69.3242C26.8384 68.5595 26.127 67.1189 26.127 64.8782C26.127 62.6196 26.8384 61.1791 27.9235 60.4144C28.6171 59.9695 29.5062 59.7208 30.3604 59.7208ZM13.2504 59.7208C14.1395 59.7208 14.993 59.934 15.6866 60.4144C16.7718 61.1791 17.5009 62.6196 17.5009 64.8782C17.5009 67.1189 16.7718 68.5595 15.6866 69.3242C14.993 69.769 14.1395 70 13.2504 70C12.3785 70 11.4716 69.7868 10.8135 69.3242C9.71062 68.5595 8.99923 67.1189 8.99923 64.8782C8.99923 62.6196 9.71062 61.1791 10.8135 60.4144C11.4894 59.9695 12.3962 59.7208 13.2504 59.7208ZM75.0208 59.9873C75.0208 59.9873 75.0208 59.9873 75.9987 59.9873C76.2836 59.9873 76.3547 60.0406 76.3547 60.3255C76.3547 60.3255 76.3547 60.3255 76.3547 69.3775C76.3547 69.6979 76.2836 69.6979 75.9987 69.7157C75.9987 69.7157 75.9987 69.7157 74.9852 69.7157C74.7003 69.7157 74.7003 69.6446 74.7003 69.3775C74.7003 69.3775 74.7003 69.3775 74.7003 60.3255C74.7003 60.0939 74.7003 59.9873 75.0208 59.9873ZM91.526 59.934C91.526 59.934 91.526 59.934 92.3973 59.934C92.6461 59.934 92.7355 59.9873 92.7355 60.1472C92.7355 60.2545 92.7171 60.3433 92.6461 60.521C91.8458 62.1037 90.5475 63.562 89.2846 64.4866C89.2846 64.4866 89.2846 64.4866 89.3201 64.5228C89.3201 64.5228 89.3201 64.5228 92.8777 69.2531C92.9488 69.3242 93.0198 69.413 93.0198 69.4841C93.0198 69.6979 92.8244 69.6979 92.7355 69.7157C92.7355 69.7157 92.7355 69.7157 91.4727 69.7157C91.17 69.7157 91.0989 69.7157 90.9035 69.4308C90.9035 69.4308 90.9035 69.4308 87.5598 64.6294C87.5598 64.5938 87.542 64.5405 87.542 64.5228C87.542 64.5228 87.5598 64.4688 87.6131 64.4155C89.0181 63.5975 90.4053 61.8549 90.939 60.2361C91.0456 59.9162 91.17 59.934 91.526 59.934ZM18.0346 59.934C18.0346 59.934 18.0346 59.934 19.1908 59.934C19.4752 59.934 19.5107 59.9695 19.6173 60.2361C19.6173 60.2361 19.6173 60.2361 22.1252 67.3861C22.1252 67.3861 22.1252 67.3861 24.5798 60.2005C24.6687 60.0229 24.6865 59.9695 24.8108 59.934C24.8108 59.934 24.8108 59.934 25.7361 59.934C25.8249 59.934 25.9848 59.934 25.9848 60.1295C25.9848 60.1828 25.9848 60.2005 25.9315 60.4144C25.9315 60.4144 25.9315 60.4144 22.6412 69.413C22.5523 69.6802 22.5168 69.7157 22.2852 69.7157C22.2852 69.7157 22.2852 69.7157 21.556 69.7157C21.3961 69.7157 21.3605 69.6446 21.2539 69.413C21.2539 69.413 21.2539 69.413 17.8569 60.4499C17.8036 60.3433 17.7858 60.2545 17.7858 60.1828C17.7858 59.934 17.9635 59.934 18.0346 59.934ZM81.4054 59.7741C82.7038 59.7741 83.9311 60.1828 83.9311 60.9119C83.9311 61.4101 83.5224 61.57 83.2375 61.57C82.6683 61.57 82.384 60.8586 81.2988 60.8586C80.2321 60.8586 79.6806 61.57 79.6806 62.2814C79.6806 64.3978 84.2871 63.8825 84.2871 67.0656C84.2871 69.0932 82.5439 70 80.8362 69.9822C79.3246 69.9822 77.813 69.3242 77.813 68.5417C77.813 68.0613 78.2217 67.9192 78.5244 67.9192C79.1647 67.9192 79.5378 68.8977 80.8718 68.8977C82.1879 68.8977 82.7927 68.0258 82.7927 67.2433C82.7927 66.2476 81.797 65.8205 80.7118 65.3585C79.3246 64.7715 78.1861 64.0779 78.1861 62.4597C78.1861 60.7165 79.7161 59.7741 81.4054 59.7741ZM61.8059 59.7208C63.1221 59.7208 64.2599 60.0051 64.2599 60.6987C64.2599 61.2679 63.9045 61.5522 63.4419 61.5345C62.7838 61.5345 62.6061 60.6454 61.4144 60.6454C60.8451 60.6454 60.4536 60.9836 60.4536 61.4989C60.4536 61.4989 60.4536 61.4989 60.4536 69.3597C60.4536 69.6446 60.347 69.6624 60.116 69.6624C60.116 69.6624 60.116 69.6624 59.1736 69.6624C58.8887 69.6624 58.7821 69.6446 58.7821 69.3597C58.7821 69.3597 58.7821 69.3597 58.7821 60.7698C58.7821 60.4677 59.0131 60.165 59.6711 60.0051C60.1693 59.8807 60.7918 59.7208 61.8059 59.7208ZM53.3042 60.8231C52.6817 60.8231 52.2013 60.9652 51.7031 61.4456C51.1872 61.9438 50.8141 63.0994 50.8141 64.8782C50.8141 66.6747 51.1872 67.7948 51.7031 68.2929C52.2013 68.7727 52.6461 68.8977 53.3042 68.8977C53.9801 68.8977 54.4598 68.7727 54.958 68.2929C55.4917 67.7948 55.8293 66.6385 55.8293 64.8782C55.8293 63.0638 55.4917 61.9438 54.958 61.4456C54.4598 60.9652 53.9801 60.8231 53.3042 60.8231ZM43.8418 59.7208C47.577 59.7208 47.6125 61.695 47.6125 62.8328C47.6125 62.8328 47.6125 62.8329 47.6125 69.3242C47.6125 69.5019 47.6125 69.6802 47.4348 69.7157C47.4348 69.7157 47.4348 69.7157 46.403 69.7157C46.0831 69.7157 45.9759 69.6802 45.9759 69.3242C45.9759 69.3242 45.9759 69.3242 45.9759 63.0461C45.9759 62.157 45.9759 60.7342 43.7885 60.7342C42.4901 60.7342 41.7787 61.1791 41.7787 61.5878C41.7787 61.5878 41.7787 61.5878 41.7787 69.3242C41.7787 69.6802 41.6543 69.7157 41.3871 69.7157C41.3871 69.7157 41.3871 69.7157 40.4625 69.7157C40.1605 69.7157 40.0894 69.6802 40.0894 69.3597C40.0894 69.3597 40.0894 69.3597 40.0894 60.9652C40.0894 60.6276 40.3026 60.3966 40.9429 60.1828C41.4588 60.0229 42.419 59.7208 43.8418 59.7208ZM30.3959 60.8231C29.7378 60.8231 29.2397 60.9652 28.7415 61.4456C28.2256 61.9438 27.8702 63.0994 27.8702 64.8782C27.8702 66.6747 28.2256 67.7948 28.7415 68.2929C29.2752 68.7727 29.7378 68.8977 30.3959 68.8977C31.0362 68.8977 31.516 68.7727 32.0141 68.2929C32.5478 67.7948 32.9038 66.6385 32.9038 64.8782C32.9038 63.0638 32.5478 61.9438 32.0141 61.4456C31.516 60.9652 31.0718 60.8231 30.3959 60.8231ZM13.2504 60.8231C12.6101 60.8231 12.1297 60.9652 11.6315 61.4456C11.0978 61.9438 10.7425 63.0994 10.7425 64.8782C10.7425 66.6747 11.0978 67.7948 11.6315 68.2929C12.1297 68.7727 12.5923 68.8977 13.2504 68.8977C13.9085 68.8977 14.3882 68.7727 14.8864 68.2929C15.4201 67.7948 15.7583 66.6385 15.7583 64.8782C15.7583 63.0638 15.4023 61.9438 14.8864 61.4456C14.3705 60.9652 13.9085 60.8231 13.2504 60.8231ZM3.77016 59.7208C7.54092 59.7208 7.55869 61.695 7.55869 62.8328C7.55869 62.8328 7.55869 62.8329 7.55869 69.3242C7.55869 69.5019 7.54092 69.6802 7.36323 69.7157C7.36323 69.7157 7.36323 69.7157 6.31362 69.7157C5.99377 69.7157 5.88715 69.6802 5.88715 69.3242C5.88715 69.3242 5.88715 69.3242 5.88715 63.0461C5.88715 62.157 5.88715 60.7342 3.69908 60.7342C2.38292 60.7342 1.67154 61.1791 1.67154 61.5878C1.67154 61.5878 1.67154 61.5878 1.67154 69.3242C1.67154 69.6802 1.54715 69.7157 1.28062 69.7157C1.28062 69.7157 1.28062 69.7157 0.337617 69.7157C0.0710772 69.7157 0 69.6802 0 69.3597C0 69.3597 0 69.3597 0 60.9652C0 60.6276 0.213232 60.3966 0.83577 60.1828C1.38723 60.0229 2.32962 59.7208 3.77016 59.7208ZM69.0803 60.9297C67.3548 60.9297 66.1098 62.4597 66.1098 64.7538C66.1098 67.3683 67.3904 68.8799 69.2047 68.8799C70.0405 68.8799 70.8407 68.6128 70.8407 68.133H70.8585C70.8585 68.133 70.8585 68.133 70.8585 61.5345C70.4853 61.2324 70.0405 60.9297 69.0803 60.9297ZM85.9587 56.4126C85.9587 56.4126 85.9587 56.4126 86.955 56.4126C87.1682 56.4126 87.2926 56.4126 87.2926 56.6975C87.2926 56.6975 87.2926 56.6975 87.2926 69.4308C87.2926 69.6979 87.186 69.6979 86.955 69.6979C86.955 69.6979 86.955 69.6979 85.9587 69.6979C85.7099 69.6979 85.6566 69.6624 85.6566 69.413C85.6566 69.413 85.6566 69.413 85.6566 56.7331C85.6566 56.4482 85.7632 56.4126 85.9587 56.4126ZM75.5716 56.306C76.0698 56.306 76.5146 56.6792 76.5501 57.2484C76.5679 57.7821 76.1764 58.2802 75.5361 58.298C74.9135 58.298 74.5404 57.8532 74.5404 57.3195C74.5404 56.7509 74.9675 56.306 75.5716 56.306ZM95.1895 51.6995C96.8261 51.6995 98.1778 53.0689 98.1778 54.7233C98.1778 56.3771 96.8617 57.7465 95.1895 57.7465C93.5358 57.7465 92.2018 56.4126 92.2018 54.7233C92.2018 53.0512 93.5358 51.6995 95.1895 51.6995ZM95.1895 52.2332C93.7845 52.2332 92.6816 53.3361 92.6994 54.7233C92.6994 56.1105 93.8023 57.2662 95.1895 57.2662C96.5768 57.2662 97.6974 56.1105 97.6974 54.7233C97.6974 53.3361 96.559 52.2332 95.1895 52.2332ZM93.9089 53.1222C93.9089 53.1222 93.9089 53.1222 95.0651 53.1222C95.4211 53.1222 95.8476 53.1222 96.1148 53.3716C96.2924 53.496 96.4168 53.7448 96.4168 54.0119C96.4168 54.2962 96.2747 54.6522 95.9364 54.8122L95.5455 54.9188L95.51 54.8832C95.51 54.9188 95.51 54.9188 95.51 54.9188H95.5455L95.7943 55.0965C95.9009 55.2209 96.0437 55.3992 96.2391 55.719C96.2391 55.719 96.2391 55.719 96.6301 56.3593C96.6301 56.3593 96.6301 56.3593 96.0075 56.3593C96.0075 56.3593 96.0075 56.3593 95.7232 55.8612C95.3494 55.1498 95.1895 54.9898 94.7631 54.9898C94.7631 54.9898 94.7631 54.9898 94.4604 54.9898C94.4604 54.9898 94.4604 54.9899 94.4604 56.3771C94.4604 56.3771 94.4604 56.3771 93.9089 56.3771V53.1222ZM94.4248 53.5671V54.545C94.4248 54.545 94.4248 54.545 95.0651 54.545C95.2961 54.545 95.8121 54.545 95.8121 54.0652C95.8121 53.5671 95.3139 53.5671 95.0118 53.5671C95.0118 53.5671 95.0118 53.5671 94.4248 53.5671ZM21.1651 9.97715C21.325 9.95938 21.5205 10.1904 21.681 10.6352C22.0008 11.5065 23.4058 15.0279 27.0522 16.3263C30.6625 17.6247 33.9173 16.5751 36.1942 14.6719C37.0478 13.9961 37.3321 14.3876 36.5674 15.6327C35.5539 17.2865 33.9173 18.2288 32.0319 19.2607C31.6588 19.4739 31.2139 19.6516 32.0852 20.0609C37.1188 22.4083 43.6818 24.0627 49.5157 24.0627C53.8551 24.0627 58.0529 23.3868 60.2759 23.2263C62.4101 23.0664 66.4835 23.2085 67.4615 27.9039C68.1551 31.2298 68.1018 40.9576 68.0662 50.2589C68.0662 50.917 68.1195 51.3085 67.3726 51.3085C64.9535 51.2908 64.8647 51.3974 64.6515 52.0022C64.2955 52.9978 64.2066 53.496 63.9401 54.5272C63.7262 55.3814 63.5663 55.6835 62.9971 55.6835C62.3745 55.6835 60.2759 55.6835 60.0094 55.6835C59.529 55.6835 59.298 55.132 59.6889 54.3851C63.5485 47.4489 63.2465 42.0605 60.9873 39.1084C60.2759 41.8473 59.9738 43.0562 59.6178 43.3234C54.958 46.8448 52.5928 54.3318 52.3968 54.9365C52.1835 55.488 51.8986 55.7012 51.1695 55.7012C50.6897 55.7012 48.3239 55.7012 47.8613 55.7012C46.9011 55.7012 46.9545 55.0254 47.5237 54.3673C52.6995 48.8362 54.0156 46.7737 55.5272 42.0783C57.0566 37.3652 53.4819 35.8713 50.743 38.3259C43.6285 35.0889 41.7431 39.3216 42.1702 41.6868C42.8283 45.4398 45.354 51.8067 45.5139 54.8122C45.5672 55.5769 44.9091 55.7368 44.4998 55.7368C44.1445 55.7368 41.3516 55.7368 41.3516 55.7368C40.3737 55.7368 40.7652 54.7944 40.8363 54.3673C42.4368 46.6309 39.1641 42.2205 35.8738 40.1574C33.9173 41.5979 31.3205 50.0457 31.0007 54.6522C30.9651 55.2031 30.6625 55.7012 30.1998 55.7012C29.7734 55.7012 27.2299 55.7012 26.5363 55.7012C25.9493 55.7012 25.8427 55.0432 26.2875 54.2429C28.1723 50.8459 31.1251 45.5286 31.0718 39.8909C31.0718 39.2683 31.0718 37.3119 30.1643 36.2451C28.1545 33.8438 27.0522 30.9272 26.0026 29.0602C25.2912 27.7973 24.3844 27.3702 23.673 27.2458C22.9077 27.1037 22.3391 27.3169 21.6988 27.0148C21.0585 26.7299 20.7202 26.0718 20.2221 25.5032C19.7956 25.0228 19.4752 24.3292 19.9733 23.6889C20.8802 22.5688 21.4672 21.9108 21.6271 21.4482C21.7876 20.9855 21.7521 20.7901 21.7876 20.3808C21.8054 20.0076 22.5701 19.0652 23.2992 18.2288C23.5658 17.909 23.3348 17.3398 22.8366 16.7883C22.3391 16.2375 20.8979 14.2632 20.8979 10.9728C20.8979 10.3148 21.0229 10.0127 21.1651 9.97715ZM34.5221 22.7821C34.22 22.7643 34.095 22.9065 33.864 23.2085C30.6091 27.6729 29.9333 30.0914 30.2182 31.9057C30.5025 33.7194 32.0497 35.5337 34.3621 36.9032C36.674 38.2371 38.0968 39.0018 39.6623 40.7088C39.8578 40.9043 40.071 40.9576 40.1427 40.5845C40.9429 35.3554 45.3178 34.5907 51.0273 34.6979C59.0664 34.8223 60.6141 37.454 61.6098 37.0453C62.5706 36.5827 63.2287 32.5105 63.4064 29.6465C63.6018 26.7299 63.7801 24.3825 60.1871 24.6668C61.0406 26.4101 61.2011 28.331 59.6356 29.4155C58.0529 30.5185 56.9145 29.9848 56.9145 28.9529C56.9145 28.0461 56.7723 26.5878 55.6338 25.2538C55.0824 25.3249 54.6381 25.3782 54.0867 25.4322C54.4243 26.9971 54.8336 29.8959 53.6418 31.0693C52.4501 32.2433 49.0708 32.3499 45.585 32.0834C44.9269 32.0301 44.1089 31.7629 43.7529 30.9272C43.5752 30.5362 43.3081 29.5222 43.237 25.0762C42.6322 24.9873 42.1525 24.9162 41.5477 24.7741C40.9251 29.0602 39.4846 30.6428 37.9724 31.016C36.4608 31.3898 34.7353 31.0338 35.0558 29.4866C35.3401 27.9928 36.087 26.3035 36.2298 23.3335C35.3045 22.9953 34.8248 22.7998 34.5221 22.7821ZM58.9953 24.8096C58.3017 24.8807 57.6436 24.9695 57.0033 25.0762C57.7325 26.1258 58.1418 27.2814 58.1773 28.8285C58.3905 28.9174 59.3868 28.5087 59.6178 27.7973C59.8317 27.0682 59.7778 26.2502 58.9953 24.8096ZM37.5992 23.7778C37.3854 25.4677 37.03 27.5485 36.6562 28.7752C36.2653 30.0025 37.3321 29.8959 37.8125 29.7005C38.4528 29.4333 39.6445 28.3488 40.2671 24.4892C39.3774 24.2759 38.4883 24.0449 37.5992 23.7778ZM44.4998 25.2538C44.5887 26.5878 44.6065 28.5975 44.8203 29.6827C45.0158 30.6251 45.3718 30.6784 45.7271 30.7317C47.0255 30.9272 51.561 31.1232 52.5745 30.1092C53.197 29.4688 53.2509 27.2458 52.8061 25.5388C50.0671 25.6987 47.2565 25.6276 44.4998 25.2538ZM25.4334 18.496C25.2024 18.5315 25.0069 18.6559 24.7931 18.8336C24.0639 19.4917 23.2992 20.5235 23.1748 20.8612C23.0149 21.1994 23.1038 22.0174 22.7833 22.4438C22.499 22.8532 21.7521 23.8488 21.7521 23.8488C21.1118 24.6491 21.4138 24.703 22.1075 25.5388C22.73 26.3212 24.1883 25.2894 25.8782 26.6233C26.7318 27.2992 27.7636 29.8071 28.5105 30.8028C29.0798 27.2281 31.3205 24.3292 31.9786 23.2263C33.0638 21.5192 32.0852 21.9285 28.9376 20.0076C26.9811 18.8336 26.0915 18.3538 25.4334 18.496ZM25.9493 20.7545C26.2158 20.7545 26.4119 20.7901 26.4475 20.8789C26.5718 21.1994 25.0602 23.0664 24.2772 21.9285C23.7085 21.1099 25.1491 20.7368 25.9493 20.7545ZM65.3273 32.1189C65.2385 32.1367 65.1674 32.19 65.1674 32.2966C64.9713 34.8578 64.4021 37.9344 64.5981 38.9307C64.7758 39.9975 65.3806 42.5587 65.505 43.6788C65.6116 44.5501 66.0031 44.2125 66.0564 43.7854C66.2875 42.0605 66.6612 33.3818 65.5761 32.2433C65.505 32.1545 65.3984 32.1189 65.3273 32.1189ZM30.3959 0C34.4865 0 37.7769 3.30754 37.7769 7.39816C37.7769 11.471 34.4865 14.8147 30.3959 14.8147C26.3408 14.8147 23.0149 11.5065 23.0149 7.39816C23.0149 3.34369 26.3053 0 30.3959 0ZM30.6091 1.74262C27.9058 1.74262 25.7005 3.91231 25.7005 6.63346C25.7005 9.33685 27.9058 11.5243 30.6091 11.5243C33.3303 11.5243 35.5006 9.33685 35.5006 6.63346C35.5006 3.94785 33.3303 1.74262 30.6091 1.74262Z"
    fill="#001965" />
</svg>
